<svg width="120" height="180" viewBox="0 0 120 180" xmlns="http://www.w3.org/2000/svg">
  <line x1="60" y1="10" x2="60" y2="2" stroke="#f5c518" stroke-width="2.5" stroke-linecap="round"/>
  <line x1="90" y1="20" x2="96" y2="14" stroke="#f5c518" stroke-width="2.5" stroke-linecap="round"/>
  <line x1="30" y1="20" x2="24" y2="14" stroke="#f5c518" stroke-width="2.5" stroke-linecap="round"/>
  <line x1="104" y1="50" x2="112" y2="46" stroke="#f5c518" stroke-width="2.5" stroke-linecap="round"/>
  <line x1="16" y1="50" x2="8" y2="46" stroke="#f5c518" stroke-width="2.5" stroke-linecap="round"/>
  <ellipse cx="60" cy="62" rx="48" ry="48" fill="#fff176" fill-opacity="0.18"/>
  <path d="M60,20 C35,20 18,40 18,62 C18,82 30,95 38,108 L82,108 C90,95 102,82 102,62 C102,40 85,20 60,20 Z" fill="#fff59d" stroke="#f9a825" stroke-width="1.5" fill-opacity="0.85"/>
  <ellipse cx="60" cy="58" rx="18" ry="18" fill="#fff9c4" fill-opacity="0.7"/>
  <path d="M48,100 L48,82 Q52,78 56,82 L56,78 Q60,74 64,78 L64,82 Q68,78 72,82 L72,100" fill="none" stroke="#f9a825" stroke-width="2.5" stroke-linecap="round" stroke-linejoin="round"/>
  <line x1="48" y1="100" x2="48" y2="108" stroke="#e65100" stroke-width="2"/>
  <line x1="72" y1="100" x2="72" y2="108" stroke="#e65100" stroke-width="2"/>
  <rect x="38" y="108" width="44" height="10" rx="2" fill="#9e9e9e" stroke="#616161" stroke-width="1"/>
  <rect x="40" y="118" width="40" height="10" rx="2" fill="#8d8d8d" stroke="#616161" stroke-width="1"/>
  <rect x="42" y="128" width="36" height="10" rx="2" fill="#9e9e9e" stroke="#616161" stroke-width="1"/>
  <line x1="40" y1="113" x2="80" y2="113" stroke="#555" stroke-width="0.8" opacity="0.6"/>
  <line x1="40" y1="123" x2="80" y2="123" stroke="#555" stroke-width="0.8" opacity="0.6"/>
  <rect x="46" y="138" width="28" height="8" rx="4" fill="#8d8d8d" stroke="#616161" stroke-width="1"/>
</svg>
